<svg width="21" height="22" viewBox="0 0 21 22" fill="none" xmlns="http://www.w3.org/2000/svg">
<path fill-rule="evenodd" clip-rule="evenodd" d="M21 11C21 5.201 16.299 0.5 10.5 0.5C4.701 0.5 -2.53482e-07 5.201 0 11C2.53482e-07 16.799 4.701 21.5 10.5 21.5C16.299 21.5 21 16.799 21 11ZM1.4 11C1.4 8.17304 2.68907 5.64716 4.71147 3.97809C4.49186 4.82369 4.375 5.71071 4.375 6.62501C4.375 12.424 9.076 17.125 14.875 17.125C15.7893 17.125 16.6763 17.0081 17.5219 16.7885C15.8528 18.811 13.327 20.1 10.5 20.1C5.47421 20.1 1.4 16.0258 1.4 11Z" fill="#0B0B0B"/>
</svg>
